# xmcd CD database file
#
# Track frame offsets:
#	150
#	26325
#	43422
#	64232
#	83727
#	105710
#	122117
#	139577
#	158260
#	184895
#
# Disc length: 2700 seconds
#
# Revision: 0
# Processed by: cddbd v1.5PL3 Copyright (c) Steve Scherf et al.
# Submitted via: CDex 1.51
#
DISCID=7f0a8a0a
DTITLE=Hot Cargo - Hot Cargo
DYEAR=1992
DGENRE=Jazz
TTITLE0=Til Jaco
TTITLE1=Tropisk Aroma
TTITLE2=Large Hill
TTITLE3=Rappy
TTITLE4=Sånt Skjer
TTITLE5=Fransk Vals
TTITLE6=Soppas
TTITLE7=Koral
TTITLE8=Baiken
TTITLE9=Ensom Rytter
EXTD=YEAR: 1992
EXTT0=
EXTT1=
EXTT2=
EXTT3=
EXTT4=
EXTT5=
EXTT6=
EXTT7=
EXTT8=
EXTT9=
PLAYORDER=
